<svg xmlns="http://www.w3.org/2000/svg" viewBox="0 0 240 240" width="240" height="240">
  <defs>
    <radialGradient id="fur" cx="50%" cy="40%" r="64%">
      <stop offset="0%" stop-color="#f2bb5f"></stop>
      <stop offset="58%" stop-color="#e3a13f"></stop>
      <stop offset="100%" stop-color="#c07c20"></stop>
    </radialGradient>
  </defs>
  
  <path d="M100 56 C82 20, 50 12, 36 28 C26 42, 40 66, 73 80 Z" fill="#2a1c0e"></path>
  <path d="M94 57 C79 29, 56 23, 45 35 C38 46, 50 64, 77 74 Z" fill="#e3a13f"></path>
  <path d="M86 56 C75 37, 60 33, 53 43 C49 51, 57 62, 75 69 Z" fill="#4a3417"></path>
  <path d="M140 56 C158 20, 190 12, 204 28 C214 42, 200 66, 167 80 Z" fill="#2a1c0e"></path>
  <path d="M146 57 C161 29, 184 23, 195 35 C202 46, 190 64, 163 74 Z" fill="#e3a13f"></path>
  <path d="M154 56 C165 37, 180 33, 187 43 C191 51, 183 62, 165 69 Z" fill="#4a3417"></path>
  
  <path d="M120 34 C172 34, 200 56, 204 100 C207 130, 200 152, 182 172 C166 190, 146 204, 120 206 C94 204, 74 190, 58 172 C40 152, 33 130, 36 100 C40 56, 68 34, 120 34 Z" fill="url(#fur)"></path>
  
  <path d="M120 150 C150 150, 176 158, 182 176 C170 192, 148 204, 120 206 C92 204, 70 192, 58 176 C64 158, 90 150, 120 150 Z" fill="#f7eddd"></path>
  
  <g fill="#241405">
    <ellipse cx="74" cy="84" rx="4.4" ry="5.4"></ellipse><ellipse cx="166" cy="84" rx="4.4" ry="5.4"></ellipse>
    <circle cx="60" cy="116" r="5"></circle><circle cx="74" cy="132" r="4.5"></circle><circle cx="64" cy="146" r="4"></circle><circle cx="86" cy="122" r="3.6"></circle>
    <circle cx="180" cy="116" r="5"></circle><circle cx="166" cy="132" r="4.5"></circle><circle cx="176" cy="146" r="4"></circle><circle cx="154" cy="122" r="3.6"></circle>
    <circle cx="96" cy="120" r="3"></circle><circle cx="144" cy="120" r="3"></circle>
    <ellipse cx="110" cy="46" rx="3" ry="5.5"></ellipse><ellipse cx="130" cy="46" rx="3" ry="5.5"></ellipse>
  </g>
  
  <path d="M66 99 C80 88, 101 95, 110 107 C99 111, 79 109, 66 99 Z" fill="#1c0f04"></path>
  <path d="M174 99 C160 88, 139 95, 130 107 C141 111, 161 109, 174 99 Z" fill="#1c0f04"></path>
  
  <path d="M72 99 C84 91, 100 97, 106 106 C97 109, 80 107, 72 99 Z" fill="#e8a01a"></path>
  <path d="M168 99 C156 91, 140 97, 134 106 C143 109, 160 107, 168 99 Z" fill="#e8a01a"></path>
  
  <ellipse cx="90" cy="102" rx="1.9" ry="6.2" fill="#0c0702"></ellipse>
  <ellipse cx="150" cy="102" rx="1.9" ry="6.2" fill="#0c0702"></ellipse>
  
  <path d="M62 87 C82 83, 101 91, 114 104 L111 109 C99 99, 84 92, 65 94 Z" fill="#241405"></path>
  <path d="M178 87 C158 83, 139 91, 126 104 L129 109 C141 99, 156 92, 175 94 Z" fill="#241405"></path>
  
  <path d="M116 105 L118 116" stroke="#241405" stroke-width="3" stroke-linecap="round"></path>
  <path d="M124 105 L122 116" stroke="#241405" stroke-width="3" stroke-linecap="round"></path>
  
  <path d="M106 130 C108 126, 132 126, 134 130 C136 140, 126 152, 120 152 C114 152, 104 140, 106 130 Z" fill="#7a4a3a"></path>
  <path d="M106 130 C108 126, 132 126, 134 130 C133 133, 125 134, 120 134 C115 134, 107 133, 106 130 Z" fill="#3a2018"></path>
  
  <path d="M120 152 L120 166" stroke="#3a2414" stroke-width="3" fill="none" stroke-linecap="round"></path>
  <path d="M120 166 C110 173, 97 174, 89 169" stroke="#3a2414" stroke-width="3" fill="none" stroke-linecap="round"></path>
  <path d="M120 166 C130 173, 143 174, 151 169" stroke="#3a2414" stroke-width="3" fill="none" stroke-linecap="round"></path>
</svg>